# Blender 4.5.2 LTS
# www.blender.org
mtllib se_beam.mtl
o Cylinder
v 0.000000 96.298645 0.499993
v 0.191342 96.298645 0.461932
v 0.353553 96.298645 0.353546
v 0.461940 96.298645 0.191334
v 0.500000 96.298645 -0.000007
v 0.461940 96.298645 -0.191349
v 0.353553 96.298645 -0.353561
v 0.191342 96.298645 -0.461947
v 0.000000 96.298645 -0.500007
v -0.191342 96.298645 -0.461947
v -0.353553 96.298645 -0.353561
v -0.461940 96.298645 -0.191349
v -0.500000 96.298645 -0.000007
v -0.461940 96.298645 0.191334
v -0.353553 96.298645 0.353546
v -0.191342 96.298645 0.461932
v -0.000000 96.298645 0.499993
v 0.000000 -3.701351 0.500000
v 0.191342 -3.701351 0.461940
v 0.353553 -3.701351 0.353554
v 0.461940 -3.701351 0.191342
v 0.500000 -3.701351 0.000000
v 0.461940 -3.701351 -0.191341
v 0.353553 -3.701351 -0.353553
v 0.191342 -3.701351 -0.461939
v 0.000000 -3.701351 -0.500000
v -0.191342 -3.701351 -0.461939
v -0.353553 -3.701351 -0.353553
v -0.461940 -3.701351 -0.191341
v -0.500000 -3.701351 0.000000
v -0.461940 -3.701351 0.191342
v -0.353553 -3.701351 0.353554
v -0.191342 -3.701351 0.461940
v -0.000000 -3.701351 0.500000
v 0.000000 96.298645 -0.000007
v 0.000000 96.298645 -0.000007
v 0.000000 96.298645 -0.000007
v 0.000000 96.298645 -0.000007
v 0.000000 96.298645 -0.000007
v 0.000000 96.298645 -0.000007
v 0.000000 96.298645 -0.000007
v 0.000000 96.298645 -0.000007
v 0.000000 96.298645 -0.000007
v 0.000000 96.298645 -0.000007
v 0.000000 96.298645 -0.000007
v 0.000000 96.298645 -0.000007
v 0.000000 96.298645 -0.000007
v 0.000000 96.298645 -0.000007
v 0.000000 96.298645 -0.000007
v 0.000000 96.298645 -0.000007
v 0.000000 96.298645 0.499993
v 0.191342 96.298645 0.461932
v 0.353553 96.298645 0.353546
v 0.461940 96.298645 0.191334
v 0.500000 96.298645 -0.000007
v 0.461940 96.298645 -0.191349
v 0.353553 96.298645 -0.353561
v 0.191342 96.298645 -0.461947
v 0.000000 96.298645 -0.500007
v -0.191342 96.298645 -0.461947
v -0.353553 96.298645 -0.353561
v -0.461940 96.298645 -0.191349
v -0.500000 96.298645 -0.000007
v -0.461940 96.298645 0.191334
v -0.353553 96.298645 0.353546
v -0.191342 96.298645 0.461932
v -0.000000 96.298645 0.499993
v 0.000000 -3.701351 0.000000
v 0.000000 -3.701351 0.000000
v 0.000000 -3.701351 0.000000
v 0.000000 -3.701351 0.000000
v 0.000000 -3.701351 0.000000
v 0.000000 -3.701351 0.000000
v 0.000000 -3.701351 0.000000
v 0.000000 -3.701351 0.000000
v 0.000000 -3.701351 0.000000
v 0.000000 -3.701351 0.000000
v 0.000000 -3.701351 0.000000
v 0.000000 -3.701351 0.000000
v 0.000000 -3.701351 0.000000
v 0.000000 -3.701351 0.000000
v 0.000000 -3.701351 0.000000
v 0.000000 -3.701351 0.000000
v 0.000000 -3.701351 0.500000
v 0.191342 -3.701351 0.461940
v 0.353553 -3.701351 0.353554
v 0.461940 -3.701351 0.191342
v 0.500000 -3.701351 0.000000
v 0.461940 -3.701351 -0.191341
v 0.353553 -3.701351 -0.353553
v 0.191342 -3.701351 -0.461939
v 0.000000 -3.701351 -0.500000
v -0.191342 -3.701351 -0.461939
v -0.353553 -3.701351 -0.353553
v -0.461940 -3.701351 -0.191341
v -0.500000 -3.701351 0.000000
v -0.461940 -3.701351 0.191342
v -0.353553 -3.701351 0.353554
v -0.191342 -3.701351 0.461940
v -0.000000 -3.701351 0.500000
vn -0.0000 -0.0000 1.0000
vn 0.3827 -0.0000 0.9239
vn 0.7071 -0.0000 0.7071
vn 0.9239 -0.0000 0.3827
vn 1.0000 -0.0000 -0.0000
vn 0.9239 -0.0000 -0.3827
vn 0.7071 -0.0000 -0.7071
vn 0.3827 -0.0000 -0.9239
vn -0.0000 -0.0000 -1.0000
vn -0.3827 -0.0000 -0.9239
vn -0.7071 -0.0000 -0.7071
vn -0.9239 -0.0000 -0.3827
vn -1.0000 -0.0000 -0.0000
vn -0.9239 -0.0000 0.3827
vn -0.7071 -0.0000 0.7071
vn -0.3827 -0.0000 0.9239
vn -0.0000 1.0000 -0.0000
vn -0.0000 1.0000 0.0001
vn -0.0000 1.0000 -0.0001
vn -0.0000 -1.0000 -0.0000
vt 0.000000 1.000000
vt 0.000000 0.000000
vt 0.062500 1.000000
vt 0.062500 0.000000
vt 0.125000 1.000000
vt 0.125000 0.000000
vt 0.187500 1.000000
vt 0.187500 0.000000
vt 0.250000 1.000000
vt 0.250000 0.000000
vt 0.312500 1.000000
vt 0.312500 0.000000
vt 0.375000 1.000000
vt 0.375000 0.000000
vt 0.437500 1.000000
vt 0.437500 0.000000
vt 0.500000 1.000000
vt 0.500000 0.000000
vt 0.562500 1.000000
vt 0.562500 0.000000
vt 0.625000 1.000000
vt 0.625000 0.000000
vt 0.687500 1.000000
vt 0.687500 0.000000
vt 0.750000 1.000000
vt 0.750000 0.000000
vt 0.812500 1.000000
vt 0.812500 0.000000
vt 0.875000 1.000000
vt 0.875000 0.000000
vt 0.937500 1.000000
vt 0.937500 0.000000
vt 1.000000 1.000000
vt 1.000000 0.000000
vt 1.000000 0.500000
vt 0.961940 0.691342
vt 0.500000 0.500000
vt 0.853553 0.853553
vt 0.691342 0.961940
vt 0.308658 0.961940
vt 0.146447 0.853553
vt 0.038060 0.691342
vt 0.000000 0.500000
vt 0.038060 0.308658
vt 0.146447 0.146447
vt 0.308658 0.038060
vt 0.691342 0.038060
vt 0.853553 0.146447
vt 0.961940 0.308658
s 1
usemtl Material
f 1/1/1 18/2/1 2/3/2
f 18/2/1 19/4/2 2/3/2
f 2/3/2 19/4/2 3/5/3
f 19/4/2 20/6/3 3/5/3
f 3/5/3 20/6/3 4/7/4
f 20/6/3 21/8/4 4/7/4
f 4/7/4 21/8/4 5/9/5
f 21/8/4 22/10/5 5/9/5
f 5/9/5 22/10/5 6/11/6
f 22/10/5 23/12/6 6/11/6
f 6/11/6 23/12/6 7/13/7
f 23/12/6 24/14/7 7/13/7
f 7/13/7 24/14/7 8/15/8
f 24/14/7 25/16/8 8/15/8
f 8/15/8 25/16/8 9/17/9
f 25/16/8 26/18/9 9/17/9
f 9/17/9 26/18/9 10/19/10
f 26/18/9 27/20/10 10/19/10
f 10/19/10 27/20/10 11/21/11
f 27/20/10 28/22/11 11/21/11
f 11/21/11 28/22/11 12/23/12
f 28/22/11 29/24/12 12/23/12
f 12/23/12 29/24/12 13/25/13
f 29/24/12 30/26/13 13/25/13
f 13/25/13 30/26/13 14/27/14
f 30/26/13 31/28/14 14/27/14
f 14/27/14 31/28/14 15/29/15
f 31/28/14 32/30/15 15/29/15
f 15/29/15 32/30/15 16/31/16
f 32/30/15 33/32/16 16/31/16
f 16/31/16 33/32/16 17/33/1
f 33/32/16 34/34/1 17/33/1
f 51/35/17 52/36/17 35/37/17
f 52/36/17 53/38/17 36/37/17
f 53/38/18 54/39/18 37/37/18
f 54/39/17 55/17/17 38/37/17
f 55/17/17 56/40/17 39/37/17
f 56/40/19 57/41/19 40/37/19
f 57/41/17 58/42/17 41/37/17
f 58/42/17 59/43/17 42/37/17
f 59/43/17 60/44/17 43/37/17
f 60/44/17 61/45/17 44/37/17
f 61/45/19 62/46/19 45/37/19
f 62/46/17 63/18/17 46/37/17
f 63/18/17 64/47/17 47/37/17
f 64/47/18 65/48/18 48/37/18
f 65/48/17 66/49/17 49/37/17
f 66/49/17 67/35/17 50/37/17
f 85/49/20 84/35/20 68/37/20
f 86/48/20 85/49/20 69/37/20
f 87/47/20 86/48/20 70/37/20
f 88/18/20 87/47/20 71/37/20
f 89/46/20 88/18/20 72/37/20
f 90/45/20 89/46/20 73/37/20
f 91/44/20 90/45/20 74/37/20
f 92/43/20 91/44/20 75/37/20
f 93/42/20 92/43/20 76/37/20
f 94/41/20 93/42/20 77/37/20
f 95/40/20 94/41/20 78/37/20
f 96/17/20 95/40/20 79/37/20
f 97/39/20 96/17/20 80/37/20
f 98/38/20 97/39/20 81/37/20
f 99/36/20 98/38/20 82/37/20
f 100/35/20 99/36/20 83/37/20
