# Blender 4.5.2 LTS
# www.blender.org
mtllib water_overlay.mtl
o cuboid
v 5.500000 0.687500 5.500000
v 5.500000 0.687500 -5.500000
v 5.500000 -0.187500 5.500000
v 5.500000 -0.187500 -5.500000
v -5.500000 0.687500 5.500000
v -5.500000 0.687500 -5.500000
v -5.500000 -0.187500 5.500000
v -5.500000 -0.187500 -5.500000
vn 1.0000 -0.0000 -0.0000
vn -1.0000 -0.0000 -0.0000
vn -0.0000 1.0000 -0.0000
vn -0.0000 -1.0000 -0.0000
vn -0.0000 -0.0000 1.0000
vn -0.0000 -0.0000 -1.0000
vt 0.689453 1.000000
vt 0.345703 1.000000
vt 0.345703 0.972656
vt 0.689453 0.972656
vt 0.689453 0.943359
vt 0.689453 0.970703
vt 0.345703 0.970703
vt 0.345703 0.943359
vt 0.000000 0.656250
vt 0.343750 0.656250
vt 0.343750 1.000000
vt 0.000000 1.000000
vt 0.343750 0.310547
vt 0.343750 0.654297
vt 0.000000 0.654297
vt 0.000000 0.310547
vt 0.689453 0.914062
vt 0.689453 0.941406
vt 0.345703 0.941406
vt 0.345703 0.914062
vt 0.689453 0.912109
vt 0.345703 0.912109
vt 0.345703 0.884766
vt 0.689453 0.884766
s 1
usemtl Material3
f 2/1/1 1/2/1 3/3/1 4/4/1
f 7/5/2 5/6/2 6/7/2 8/8/2
f 5/9/3 1/10/3 2/11/3 6/12/3
f 4/13/4 3/14/4 7/15/4 8/16/4
f 3/17/5 1/18/5 5/19/5 7/20/5
f 6/21/6 2/22/6 4/23/6 8/24/6
